# xmcd
#
# Track frame offsets:
#	150
#	13703
#	26780
#	44360
#	55007
#	68183
#	84269
#	98837
#	108128
#	122650
#	140626
#	149017
#	162316
#	173041
#	185464
#	200724
#	210457
#	223582
#	239325
#	252892
#
# Disc length: 3562 seconds
#
# Revision: 1
# Processed by: cddbd v1.5.2PL0 Copyright (c) Steve Scherf et al.
# Submitted via: EasyCDDAExtractor 12.0.0.1
#
DISCID=210de814
DTITLE=Various Artist - Kaikkien aikojen paras lastenlevy
DYEAR=2008
DGENRE=
TTITLE0=Risto Räppääjä - Ei hassumpaa
TTITLE1=Ella ja Aleksi - Lenni Lokinpoikanen
TTITLE2=Paukkumaissi - Jopo
TTITLE3=Fröbelin palikat - Sutsisatsi
TTITLE4=Maija Salon musiikkileikkikoulun lapset - Kay muumilaaksoon
TTITLE5=Jippu - Sininen uni
TTITLE6=Satu Sopanen and Tuttiorketeri - Värilaulu
TTITLE7=Kengurumeininki - Kengurumeininki
TTITLE8=Karvakuonot - Ole mulle kaveri
TTITLE9=Tuure Kilpeläinen - Kuningas ei
TTITLE10=Pentti Rasinkangas and Ohilyönti - Meidaän uusi vauva
TTITLE11=J.Karjalainen - Apinaorkesteri
TTITLE12=Mikko Alatalo - Karkkipäivä
TTITLE13=Riitta Korpela - Ti-Ti Nalle remix
TTITLE14=Siiri Nordin - Hyväntuoksuinen
TTITLE15=Maiju Kopra and Maija Salon lapsiryhmä ja Hot Dog-orkesteri - Tiitiäise
TTITLE15=n tuutulaulu
TTITLE16=Lollipop - Vaarilla on saari
TTITLE17=Robotti Vipunen - Dodo-sorsa
TTITLE18=Pikku-orava - Naurava kulkuri
TTITLE19=Vesa-Matti Loiri - Suojelusenkeli
EXTD=
EXTT0=
EXTT1=
EXTT2=
EXTT3=
EXTT4=
EXTT5=
EXTT6=
EXTT7=
EXTT8=
EXTT9=
EXTT10=
EXTT11=
EXTT12=
EXTT13=
EXTT14=
EXTT15=
EXTT16=
EXTT17=
EXTT18=
EXTT19=
PLAYORDER=
